<?xml version="1.0" standalone="no"?>
<!DOCTYPE svg PUBLIC "-//W3C//DTD SVG 20010904//EN"
 "http://www.w3.org/TR/2001/REC-SVG-20010904/DTD/svg10.dtd">
<svg version="1.0" xmlns="http://www.w3.org/2000/svg"
 width="512.000000pt" height="512.000000pt" viewBox="0 0 512.000000 512.000000"
 preserveAspectRatio="xMidYMid meet">
<metadata>
Created by potrace 1.14, written by Peter Selinger 2001-2017
</metadata>
<g transform="translate(0.000000,512.000000) scale(0.100000,-0.100000)"
fill="#000000" stroke="none">
<path d="M2539 4055 c-30 -66 -39 -77 -73 -91 -22 -8 -54 -30 -70 -48 -26 -26
-203 -136 -221 -136 -3 0 -5 11 -5 25 0 31 -7 31 -59 2 -43 -25 -134 -131
-177 -207 -14 -24 -45 -105 -71 -180 -25 -74 -58 -159 -74 -188 -17 -29 -48
-103 -70 -165 -37 -100 -43 -131 -59 -292 -9 -99 -14 -184 -10 -190 4 -5 11
-39 14 -75 4 -36 11 -69 16 -75 4 -5 10 -55 12 -110 8 -163 44 -221 183 -289
145 -70 328 -91 420 -46 75 36 169 162 205 275 7 22 17 46 23 53 11 15 51 16
77 2 18 -9 19 -19 13 -130 -5 -97 -3 -132 11 -185 22 -78 63 -145 102 -165 16
-8 31 -18 34 -21 17 -19 169 -66 240 -74 61 -7 110 -23 110 -36 0 -5 -16 -25
-35 -45 -19 -19 -35 -42 -35 -50 0 -8 -4 -14 -10 -14 -5 0 -21 -18 -35 -40
-14 -22 -29 -40 -34 -40 -5 0 -48 -38 -95 -85 -47 -47 -90 -85 -95 -85 -5 0
-12 -10 -15 -22 -7 -22 -7 -22 -19 -4 -7 10 -22 34 -34 53 -13 18 -23 39 -23
46 0 18 -71 88 -84 84 -6 -2 -17 2 -24 10 -7 7 -22 13 -33 13 -22 0 -24 11 -7
28 9 9 6 12 -15 12 -15 0 -27 -4 -27 -10 0 -5 5 -10 10 -10 16 0 11 -28 -7
-39 -14 -7 -15 -12 -5 -23 6 -8 9 -18 5 -22 -4 -4 3 -9 15 -13 12 -3 22 -10
22 -15 0 -6 -10 -8 -23 -4 -13 3 -32 0 -43 -8 -45 -31 -166 -25 -205 10 -28
26 -51 7 -47 -40 2 -22 6 -43 10 -46 4 -3 9 -41 11 -83 2 -42 7 -77 11 -78 22
-3 85 14 80 22 -3 5 0 9 7 9 8 0 7 5 -2 17 -12 15 -12 16 4 10 10 -4 23 -7 29
-7 6 0 6 -6 -2 -15 -16 -19 -18 -19 86 10 247 69 294 77 294 50 0 -20 -33 -40
-115 -69 -38 -13 -108 -39 -155 -56 -47 -17 -92 -34 -100 -36 -12 -5 -12 -7 3
-16 16 -9 18 -17 11 -66 -4 -32 -8 -68 -9 -82 -3 -44 -5 -47 -30 -58 -14 -6
-25 -18 -25 -25 0 -16 -60 -30 -195 -47 -179 -22 -223 -40 -285 -117 -87 -107
-186 -213 -200 -213 -20 0 -9 -20 20 -35 39 -20 80 -19 96 2 7 10 15 15 19 11
9 -9 -27 -57 -42 -58 -7 0 -13 -5 -13 -11 0 -7 -10 -9 -25 -7 -17 4 -33 -2
-51 -18 -14 -13 -31 -24 -39 -24 -7 0 -21 -3 -31 -7 -12 -4 -15 -3 -10 5 5 8
-1 12 -16 12 -31 0 -61 21 -125 86 -60 61 -83 109 -82 168 0 22 3 35 6 29 3
-8 22 1 56 27 29 21 72 43 96 49 45 10 118 61 114 80 -2 6 3 8 10 6 10 -4 67
37 67 48 0 2 -12 3 -26 1 -15 -1 -36 1 -48 5 -11 5 -68 12 -126 15 -57 4 -108
10 -112 12 -10 6 -47 -16 -75 -45 -13 -13 -23 -20 -23 -15 0 4 -16 -7 -35 -26
-19 -19 -35 -40 -35 -48 0 -7 -4 -11 -9 -8 -12 8 -34 -21 -26 -34 3 -5 1 -10
-4 -10 -6 0 -11 -11 -11 -25 0 -14 5 -25 10 -25 6 0 10 -4 10 -10 0 -18 -17
-10 -27 12 -9 22 -11 21 -35 -17 l-25 -40 27 -27 c24 -24 27 -32 20 -67 -5
-26 -3 -47 4 -58 14 -21 37 -95 32 -101 -8 -8 -45 23 -50 41 -4 16 -10 18 -41
13 -25 -5 -35 -4 -30 3 3 6 2 11 -4 11 -5 0 -13 -5 -17 -12 -5 -7 -11 -5 -21
7 -9 14 -13 15 -13 4 0 -12 -2 -12 -11 1 -9 13 -10 13 -6 0 2 -8 10 -14 16
-13 16 4 14 -12 -4 -27 -8 -7 -12 -16 -9 -21 8 -13 -6 -69 -17 -69 -5 0 -9 17
-9 38 l-1 37 -15 -29 c-12 -21 -15 -53 -12 -135 3 -95 6 -111 31 -153 l28 -48
182 0 c179 0 183 1 220 25 l37 26 0 -26 0 -25 253 0 253 0 -7 58 c-6 55 3 161
16 182 3 5 3 15 -1 21 -4 8 -9 7 -15 -2 -6 -9 -9 -10 -9 -2 0 6 7 19 16 27 9
9 12 21 8 28 -12 19 -5 68 14 108 9 19 15 43 13 54 -2 12 1 16 9 11 9 -6 11 3
8 34 -2 22 1 42 6 44 5 2 9 18 9 35 0 24 4 31 15 27 8 -3 12 0 9 7 -2 7 -9 12
-15 11 -5 -1 -16 4 -22 12 -10 12 -10 15 -1 15 8 0 10 8 6 20 -10 33 9 22 28
-16 19 -39 22 -64 7 -64 -5 0 -7 -6 -4 -14 3 -7 -6 -69 -19 -137 -42 -210 -49
-258 -45 -284 3 -13 2 -22 -2 -20 -7 5 -3 -117 5 -142 3 -7 11 -13 18 -13 11
0 13 17 9 79 -4 69 4 161 25 279 l5 33 34 -35 c60 -62 203 -147 244 -145 13 1
13 1 0 6 -78 29 -149 72 -206 125 l-66 62 5 49 c2 26 10 54 17 60 10 10 12 8
6 -8 -6 -15 -4 -17 5 -8 9 9 9 22 2 52 -6 22 -8 50 -6 64 3 14 -6 45 -21 75
-14 28 -26 55 -26 60 0 4 74 16 164 26 90 9 180 21 199 27 23 6 50 6 79 -1 23
-5 73 -10 111 -10 41 0 89 -8 124 -20 31 -11 60 -17 65 -14 9 6 6 -22 -13
-119 -5 -26 -9 -99 -9 -161 0 -128 4 -121 -93 -176 -80 -44 -65 -49 22 -7 l71
35 2 -116 c2 -65 3 -138 2 -164 l0 -48 469 0 c441 0 468 1 463 18 -3 9 -8 31
-12 47 -14 59 -67 146 -119 193 -28 26 -69 70 -90 99 -21 28 -49 57 -61 64
-13 7 -24 16 -24 21 0 4 -5 8 -12 8 -6 0 -33 18 -60 41 -29 24 -53 37 -60 33
-7 -4 -10 -4 -6 1 10 11 -54 66 -70 60 -7 -3 -10 0 -7 5 3 6 -4 15 -17 20 -28
12 -57 30 -76 48 -24 22 -52 33 -64 26 -6 -4 -8 -3 -5 2 3 6 -6 18 -21 28 -15
10 -47 43 -70 73 -33 40 -47 51 -56 44 -7 -6 -15 -8 -18 -5 -3 2 -8 -2 -12
-11 -3 -9 -2 -13 4 -10 6 3 10 -1 10 -9 0 -9 -4 -16 -10 -16 -5 0 -7 -13 -3
-32 4 -22 3 -29 -5 -24 -15 9 -15 1 -2 -25 7 -11 7 -19 1 -19 -5 0 -12 6 -15
13 -4 6 -4 -2 -1 -20 3 -25 1 -31 -10 -26 -8 3 -15 6 -15 7 0 0 6 21 14 46 7
25 12 76 11 113 -2 58 0 67 13 62 8 -3 3 6 -11 21 -28 28 -31 41 -21 91 5 24
17 35 71 62 156 77 293 195 363 313 25 42 39 56 51 53 44 -14 120 52 233 204
80 108 125 188 156 281 25 73 25 112 2 133 -16 14 -21 14 -65 -9 -27 -13 -45
-18 -41 -11 16 28 38 47 55 47 26 0 79 103 123 235 42 128 96 368 96 425 0 22
11 93 25 157 24 110 25 119 10 175 -14 57 -23 75 -74 152 l-25 38 -17 -21
c-20 -24 -21 -23 -39 34 -21 64 -107 233 -141 276 -17 22 -51 53 -76 70 -45
32 -52 31 -66 -6 -3 -5 -14 2 -26 18 -13 15 -43 41 -68 58 -36 25 -47 29 -54
18 -8 -14 -6 -15 -79 50 -14 13 -79 60 -145 106 -66 47 -128 96 -138 110 -10
14 -22 25 -27 25 -6 0 -10 -36 -10 -79 0 -44 -4 -82 -8 -85 -12 -7 -179 135
-207 176 -13 19 -31 58 -40 86 -10 29 -21 52 -25 52 -4 0 -23 -34 -41 -75z
m-295 -793 c6 -5 34 -17 61 -27 28 -10 95 -39 150 -65 55 -26 165 -69 245 -96
158 -53 152 -53 462 -45 54 1 103 -1 109 -5 6 -3 28 -8 48 -10 20 -1 54 -12
76 -24 25 -13 31 -19 15 -15 -17 4 -21 3 -11 -3 8 -6 11 -20 7 -38 -3 -16 -2
-56 3 -89 9 -64 -6 -121 -34 -132 -8 -3 -15 -16 -15 -30 0 -31 -32 -123 -42
-123 -5 0 -8 -7 -8 -16 0 -8 -7 -22 -16 -31 -8 -9 -13 -21 -11 -27 3 -7 2 -31
-3 -54 -5 -29 -4 -42 4 -42 6 0 4 -5 -4 -10 -13 -8 -12 -10 4 -10 11 0 17 -2
14 -5 -3 -3 -20 -2 -38 2 -30 5 -31 7 -15 15 16 6 14 7 -7 3 -14 -3 -66 6
-115 19 -48 13 -128 29 -178 35 -49 7 -100 16 -111 21 -14 5 -26 4 -35 -5 -8
-7 -42 -22 -76 -33 -49 -16 -70 -18 -105 -11 -84 18 -90 23 -252 214 -75 88
-209 117 -304 67 l-44 -23 -120 18 -120 17 6 28 c11 55 79 226 127 318 54 103
115 169 203 220 47 27 51 28 85 14 19 -8 39 -18 45 -22z m1203 -308 c-3 -3
-12 -4 -19 -1 -8 3 -5 6 6 6 11 1 17 -2 13 -5z m10 -36 c-3 -8 -6 -5 -6 6 -1
11 2 17 5 13 3 -3 4 -12 1 -19z m-1727 -283 c0 -8 -4 -15 -10 -15 -5 0 -10 7
-10 15 0 8 5 15 10 15 6 0 10 -7 10 -15z m460 5 c18 -12 2 -12 -25 0 -13 6
-15 9 -5 9 8 0 22 -4 30 -9z m-250 -45 c-16 -19 -7 -19 29 0 46 23 141 3 381
-82 29 -10 100 -111 100 -142 0 -86 -85 -254 -157 -309 -72 -54 -246 -39 -400
34 -85 40 -108 67 -123 140 -15 71 3 255 29 299 24 41 77 75 119 75 29 0 33
-2 22 -15z m995 -301 c21 -12 65 -19 150 -24 66 -4 111 -8 100 -9 -17 -3 -17
-4 5 -11 23 -7 23 -8 3 -9 -56 -3 -66 -21 -30 -55 12 -12 23 -26 24 -32 1 -5
5 -23 9 -39 7 -27 6 -29 -9 -17 -9 8 -14 19 -11 26 3 8 -2 16 -11 20 -11 4
-14 2 -9 -7 4 -6 -6 0 -22 14 -43 38 -130 70 -210 76 -87 7 -113 1 -155 -34
-18 -16 -34 -27 -36 -25 -2 1 -3 -1 -4 -5 -1 -15 21 -14 27 1 9 23 24 20 24
-4 0 -11 15 -37 34 -58 31 -33 39 -37 85 -37 41 0 55 5 80 29 16 16 33 42 36
57 4 16 12 29 19 29 18 0 89 -52 113 -84 27 -34 48 -33 65 4 7 17 15 30 18 30
3 0 14 -15 24 -34 16 -30 17 -41 6 -92 -6 -33 -20 -78 -31 -100 -11 -23 -18
-48 -17 -55 2 -7 -3 -14 -9 -15 -7 -1 -18 -2 -24 -3 -5 0 -8 -5 -4 -10 18 -30
-154 -24 -265 8 -173 49 -230 118 -230 276 0 78 10 156 20 150 4 -2 5 6 3 19
-3 15 4 32 24 53 49 53 59 54 122 17 31 -18 70 -41 86 -50z m302 -30 c-3 -3
-12 -4 -19 -1 -8 3 -5 6 6 6 11 1 17 -2 13 -5z m-317 -70 c0 -9 -7 -14 -17
-12 -25 5 -28 28 -4 28 12 0 21 -6 21 -16z m330 -314 c0 -5 -5 -10 -11 -10 -5
0 -7 5 -4 10 3 6 8 10 11 10 2 0 4 -4 4 -10z m300 -64 c0 -19 -81 -157 -110
-187 -20 -22 -34 -39 -31 -39 3 0 -5 -7 -17 -16 -13 -9 -25 -14 -28 -11 -5 5
45 106 61 123 5 6 26 31 45 57 19 25 41 47 48 47 6 0 12 7 12 15 0 8 5 15 10
15 6 0 10 -2 10 -4z m-403 -92 c-3 -3 -12 -4 -19 -1 -8 3 -5 6 6 6 11 1 17 -2
13 -5z m-587 -250 c0 -14 -3 -14 -15 -4 -8 7 -15 14 -15 16 0 2 7 4 15 4 8 0
15 -7 15 -16z m7 -59 c0 -8 -4 -12 -9 -9 -4 3 -8 9 -8 15 0 5 4 9 8 9 5 0 9
-7 9 -15z m68 -55 c3 -5 -1 -10 -9 -10 -8 0 -18 5 -21 10 -3 6 1 10 9 10 8 0
18 -4 21 -10z m-326 -100 c0 -15 -28 48 -28 65 0 11 6 2 14 -20 8 -22 15 -42
14 -45z m358 74 c-3 -3 -12 -4 -19 -1 -8 3 -5 6 6 6 11 1 17 -2 13 -5z m-387
-71 c0 -17 -8 -16 -26 1 -8 8 -11 22 -7 32 6 16 7 16 20 -2 7 -10 13 -24 13
-31z m139 -298 c0 -5 -4 -3 -9 5 -5 8 -9 22 -9 30 0 16 17 -16 18 -35z m-1039
-79 c0 -3 -4 -8 -10 -11 -5 -3 -10 -1 -10 4 0 6 5 11 10 11 6 0 10 -2 10 -4z
m45 -27 c4 -6 13 -8 21 -5 15 6 18 -3 8 -28 -5 -13 -9 -12 -27 4 -11 11 -27
20 -34 20 -7 0 -13 5 -13 10 0 13 37 13 45 -1z m-95 -20 c0 -13 -29 -43 -36
-36 -7 6 18 47 28 47 5 0 8 -5 8 -11z m150 -25 c0 -8 -4 -12 -10 -9 -5 3 -10
10 -10 16 0 5 5 9 10 9 6 0 10 -7 10 -16z m-122 -13 c10 -6 9 -13 -7 -32 -10
-13 -23 -21 -27 -16 -4 4 1 14 12 22 16 13 17 16 4 25 -18 12 -1 13 18 1z
m-107 -44 c-13 -13 -26 -3 -16 12 3 6 11 8 17 5 6 -4 6 -10 -1 -17z m266 17
c-3 -3 -12 -4 -19 -1 -8 3 -5 6 6 6 11 1 17 -2 13 -5z m-73 -30 c3 -8 2 -12
-4 -9 -6 3 -10 10 -10 16 0 14 7 11 14 -7z m-69 -4 c3 -5 1 -10 -4 -10 -6 0
-11 5 -11 10 0 6 2 10 4 10 3 0 8 -4 11 -10z m625 0 c0 -5 -5 -10 -11 -10 -5
0 -7 5 -4 10 3 6 8 10 11 10 2 0 4 -4 4 -10z m-720 -20 c0 -5 -2 -10 -4 -10
-3 0 -8 5 -11 10 -3 6 -1 10 4 10 6 0 11 -4 11 -10z m17 -22 c-3 -8 -6 -5 -6
6 -1 11 2 17 5 13 3 -3 4 -12 1 -19z m-102 -8 c3 -5 1 -10 -4 -10 -6 0 -11 5
-11 10 0 6 2 10 4 10 3 0 8 -4 11 -10z m185 -4 c0 -3 -4 -8 -10 -11 -5 -3 -10
-1 -10 4 0 6 5 11 10 11 6 0 10 -2 10 -4z m-96 -58 c-5 -16 -3 -20 9 -15 9 3
18 1 21 -6 10 -25 6 23 -5 50 -8 23 -8 26 3 15 8 -9 13 -37 12 -82 -1 -58 1
-67 15 -63 12 5 13 3 4 -7 -15 -16 -36 -3 -30 20 3 12 0 17 -8 14 -16 -6 -26
-40 -18 -61 3 -8 11 -12 17 -10 8 3 11 -8 10 -30 0 -21 5 -37 13 -40 18 -7 17
-23 -2 -23 -9 0 -35 20 -60 44 -44 44 -44 45 -38 97 5 42 3 51 -8 47 -8 -3
-13 -10 -12 -16 1 -5 -7 -8 -17 -5 -13 3 -20 0 -20 -8 0 -11 -2 -11 -10 1 -7
12 -3 16 18 21 23 6 20 7 -14 8 -46 1 -61 19 -44 52 13 23 17 24 17 4 0 -8 -4
-15 -9 -15 -22 0 -4 -18 22 -22 43 -6 58 7 24 21 -26 10 -22 11 28 7 62 -5 83
7 72 40 -5 18 -5 18 6 1 6 -9 8 -27 4 -39z m666 8 c0 -2 -7 -6 -15 -10 -8 -3
-15 -1 -15 4 0 6 7 10 15 10 8 0 15 -2 15 -4z m835 -37 c0 -7 -8 -14 -18 -15
-13 -2 -14 -1 -2 3 13 4 14 7 3 20 -11 14 -11 15 2 11 8 -2 15 -11 15 -19z
m275 11 c0 -5 -2 -10 -4 -10 -3 0 -8 5 -11 10 -3 6 -1 10 4 10 6 0 11 -4 11
-10z m-269 -53 c-10 -9 -11 -8 -5 6 3 10 9 15 12 12 3 -3 0 -11 -7 -18z m-21
9 c0 -3 -4 -8 -10 -11 -5 -3 -10 -1 -10 4 0 6 5 11 10 11 6 0 10 -2 10 -4z
m20 -93 c0 -13 -5 -23 -10 -23 -6 0 -8 11 -4 25 4 17 2 25 -6 25 -9 0 -11 -14
-6 -52 4 -29 9 -84 11 -123 3 -62 3 -65 -5 -27 -13 62 -20 179 -13 214 l6 30
13 -23 c7 -13 13 -34 14 -46z m-1439 14 c-10 -9 -11 -8 -5 6 3 10 9 15 12 12
3 -3 0 -11 -7 -18z m-311 -113 c0 -8 -5 -12 -10 -9 -6 4 -8 11 -5 16 9 14 15
11 15 -7z m680 -38 c0 -3 -4 -8 -10 -11 -5 -3 -10 -1 -10 4 0 6 5 11 10 11 6
0 10 -2 10 -4z m-3 -118 c-3 -8 -6 -5 -6 6 -1 11 2 17 5 13 3 -3 4 -12 1 -19z
m1050 0 c-3 -8 -6 -5 -6 6 -1 11 2 17 5 13 3 -3 4 -12 1 -19z"/>
<path d="M2022 2462 c-27 -9 -92 -59 -92 -72 0 -17 22 -11 56 15 42 32 44 32
33 -7 -11 -41 3 -87 35 -117 18 -17 37 -23 72 -23 42 -1 51 3 81 35 19 21 33
47 33 61 0 14 4 27 8 30 12 7 56 -40 86 -94 30 -53 33 -49 7 12 -23 54 -77
109 -134 136 -47 22 -148 35 -185 24z m140 -77 c-3 -17 -10 -25 -21 -23 -26 5
-25 36 1 41 13 2 24 5 24 6 1 0 -1 -10 -4 -24z"/>
<path d="M3110 2242 c0 -7 -8 -12 -17 -12 -15 0 -16 -2 -3 -10 10 -6 17 -4 23
6 5 9 6 18 3 21 -3 4 -6 1 -6 -5z"/>
<path d="M3138 2243 c7 -3 16 -2 19 1 4 3 -2 6 -13 5 -11 0 -14 -3 -6 -6z"/>
<path d="M1610 2421 c0 -6 5 -13 10 -16 6 -3 10 1 10 9 0 9 -4 16 -10 16 -5 0
-10 -4 -10 -9z"/>
<path d="M2552 1994 c-13 -42 -22 -94 -22 -131 0 -63 -4 -71 -41 -78 -11 -2
-36 -18 -55 -35 l-35 -31 -29 31 c-49 53 -93 22 -50 -33 13 -16 31 -27 46 -27
17 0 27 -8 34 -24 8 -22 14 -24 74 -24 58 0 69 3 96 28 25 23 30 35 28 69 -1
27 -6 41 -15 41 -12 0 -20 45 -13 75 14 65 19 137 13 169 l-8 39 -23 -69z m25
-6 c-3 -8 -6 -5 -6 6 -1 11 2 17 5 13 3 -3 4 -12 1 -19z"/>
<path d="M2460 1589 c0 -5 5 -7 10 -4 6 3 10 8 10 11 0 2 -4 4 -10 4 -5 0 -10
-5 -10 -11z"/>
<path d="M2266 1573 c-27 -7 42 -46 119 -68 33 -10 66 -22 73 -28 7 -5 16 -6
20 -2 4 4 1 10 -6 12 -6 3 -10 9 -6 14 3 5 -2 9 -10 9 -9 0 -16 5 -16 10 0 6
-8 10 -17 10 -15 0 -16 2 -3 10 13 8 12 10 -5 11 -11 1 -24 2 -30 4 -5 1 -23
3 -38 3 -16 1 -26 6 -23 10 5 9 -29 12 -58 5z m41 -9 c-3 -3 -12 -4 -19 -1 -8
3 -5 6 6 6 11 1 17 -2 13 -5z m120 -50 c-3 -3 -12 -4 -19 -1 -8 3 -5 6 6 6 11
1 17 -2 13 -5z"/>
<path d="M1705 1540 c3 -5 8 -10 11 -10 2 0 4 5 4 10 0 6 -5 10 -11 10 -5 0
-7 -4 -4 -10z"/>
<path d="M1740 1456 c0 -9 5 -16 10 -16 6 0 10 4 10 9 0 6 -4 13 -10 16 -5 3
-10 -1 -10 -9z"/>
<path d="M1765 1431 c-3 -6 6 -28 20 -50 14 -23 25 -43 25 -45 0 -12 62 -96
71 -96 5 0 9 -6 9 -12 0 -7 14 -26 30 -42 27 -26 30 -27 37 -11 4 11 2 20 -5
23 -6 2 -22 13 -34 24 -13 11 -18 17 -12 14 7 -3 17 1 24 9 9 10 9 15 1 15 -6
0 -11 -5 -11 -11 0 -8 -4 -8 -15 1 -8 6 -20 8 -27 4 -8 -5 -8 -1 2 11 9 11 10
16 3 11 -8 -4 -13 -2 -13 6 0 8 -9 21 -20 31 -15 12 -19 25 -15 46 5 32 -11
53 -21 26 -6 -14 -8 -14 -19 2 -7 9 -11 23 -8 29 6 15 -13 28 -22 15z m62 -61
c-1 -11 -5 -20 -9 -20 -10 0 -10 4 -2 24 8 22 13 20 11 -4z"/>
<path d="M1810 1420 c-6 -11 -8 -20 -6 -20 3 0 10 9 16 20 6 11 8 20 6 20 -3
0 -10 -9 -16 -20z"/>
<path d="M2091 1294 c0 -11 3 -14 6 -6 3 7 2 16 -1 19 -3 4 -6 -2 -5 -13z"/>
<path d="M2185 1180 c3 -5 -2 -10 -12 -11 -10 0 -13 -3 -6 -6 7 -2 23 3 35 11
l22 16 -22 0 c-13 0 -20 -4 -17 -10z"/>
<path d="M2809 854 c-9 -12 -10 -15 -1 -10 7 4 12 2 12 -5 0 -10 3 -10 12 -1
8 8 9 15 2 22 -8 8 -15 6 -25 -6z"/>
<path d="M1075 570 c-4 -12 -2 -27 5 -35 7 -9 8 -15 0 -20 -5 -3 -10 -1 -10 4
0 6 -4 11 -10 11 -5 0 -10 -7 -10 -15 0 -8 -4 -15 -10 -15 -5 0 -10 -7 -10
-15 0 -20 17 -19 29 3 8 13 10 14 11 2 0 -13 1 -13 11 0 8 12 12 12 16 2 3 -9
10 -4 19 13 16 32 18 55 4 55 -5 0 -7 -7 -4 -15 4 -8 3 -15 -1 -15 -3 0 -13 7
-21 15 -9 8 -11 15 -6 15 5 0 9 7 9 15 0 22 -15 18 -22 -5z"/>
<path d="M2515 239 c-22 -10 -35 -19 -29 -19 15 0 84 29 84 35 0 8 -13 4 -55
-16z"/>
<path d="M2420 210 c-20 -6 -21 -8 -5 -8 11 0 29 3 40 8 25 11 -1 11 -35 0z"/>
<path d="M2335 200 c11 -5 27 -9 35 -9 9 0 8 4 -5 9 -11 5 -27 9 -35 9 -9 0
-8 -4 5 -9z"/>
</g>
</svg>
