<svg xmlns="http://www.w3.org/2000/svg" xmlns:xlink="http://www.w3.org/1999/xlink" width="500" zoomAndPan="magnify" viewBox="0 0 375 374.999991" height="500" preserveAspectRatio="xMidYMid meet" version="1.0"><defs><g/><clipPath id="2a6909c054"><path d="M 115.300781 73.839844 L 260.050781 73.839844 L 260.050781 214.089844 L 115.300781 214.089844 Z M 115.300781 73.839844 " clip-rule="nonzero"/></clipPath><clipPath id="8b0c5e4491"><path d="M 115.300781 109 L 181 109 L 181 149 L 115.300781 149 Z M 115.300781 109 " clip-rule="nonzero"/></clipPath><clipPath id="16717a6a73"><path d="M 151 73.839844 L 192 73.839844 L 192 137 L 151 137 Z M 151 73.839844 " clip-rule="nonzero"/></clipPath><clipPath id="5ddf6f9add"><path d="M 164 73.839844 L 192 73.839844 L 192 137 L 164 137 Z M 164 73.839844 " clip-rule="nonzero"/></clipPath><clipPath id="d3ee533877"><path d="M 220 124 L 260.050781 124 L 260.050781 149 L 220 149 Z M 220 124 " clip-rule="nonzero"/></clipPath><clipPath id="96f756f543"><path d="M 220 132 L 260.050781 132 L 260.050781 149 L 220 149 Z M 220 132 " clip-rule="nonzero"/></clipPath><clipPath id="dfe7b3fc41"><path d="M 176 177 L 192 177 L 192 214.089844 L 176 214.089844 Z M 176 177 " clip-rule="nonzero"/></clipPath><clipPath id="8edbd079e9"><path d="M 168 177 L 192 177 L 192 214.089844 L 168 214.089844 Z M 168 177 " clip-rule="nonzero"/></clipPath><clipPath id="54d3afb861"><path d="M 115.300781 123 L 181 123 L 181 149 L 115.300781 149 Z M 115.300781 123 " clip-rule="nonzero"/></clipPath><clipPath id="596d7169bb"><path d="M 180 137 L 218 137 L 218 175 L 180 175 Z M 180 137 " clip-rule="nonzero"/></clipPath><clipPath id="24678964e7"><path d="M 180.496094 141.042969 C 180.496094 139.175781 182.007812 137.667969 183.871094 137.667969 L 214.246094 137.667969 C 216.109375 137.667969 217.621094 139.175781 217.621094 141.042969 L 217.621094 171.417969 C 217.621094 173.28125 216.109375 174.792969 214.246094 174.792969 L 183.871094 174.792969 C 182.007812 174.792969 180.496094 173.28125 180.496094 171.417969 Z M 214.246094 141.042969 L 183.871094 141.042969 L 183.871094 171.417969 L 214.246094 171.417969 Z M 193.152344 154.542969 L 199.902344 154.542969 C 200.832031 154.542969 201.589844 153.785156 201.589844 152.855469 C 201.589844 150.988281 200.078125 149.480469 198.214844 149.480469 L 196.527344 149.480469 C 194.664062 149.480469 193.152344 150.988281 193.152344 152.855469 Z M 204.675781 154.542969 C 204.863281 154.011719 204.964844 153.445312 204.964844 152.855469 C 204.964844 149.125 201.941406 146.105469 198.214844 146.105469 L 196.527344 146.105469 C 192.800781 146.105469 189.777344 149.125 189.777344 152.855469 L 189.777344 159.605469 C 189.777344 163.332031 192.800781 166.355469 196.527344 166.355469 L 201.589844 166.355469 C 205.316406 166.355469 208.339844 163.332031 208.339844 159.605469 L 208.339844 156.230469 C 208.339844 155.296875 207.582031 154.542969 206.652344 154.542969 Z M 199.902344 157.917969 L 193.152344 157.917969 L 193.152344 159.605469 C 193.152344 161.46875 194.664062 162.980469 196.527344 162.980469 L 201.589844 162.980469 C 203.453125 162.980469 204.964844 161.46875 204.964844 159.605469 L 204.964844 157.917969 Z M 199.902344 157.917969 " clip-rule="evenodd"/></clipPath><linearGradient x1="12" gradientTransform="matrix(1.6875, 0, 0, 1.6875, 178.80801, 135.978757)" y1="1" x2="12" gradientUnits="userSpaceOnUse" y2="22.999999" id="e45f218e48"><stop stop-opacity="1" stop-color="rgb(100%, 49.798584%, 63.09967%)" offset="0"/><stop stop-opacity="1" stop-color="rgb(100%, 49.798584%, 63.09967%)" offset="0.5"/><stop stop-opacity="1" stop-color="rgb(100%, 49.798584%, 63.09967%)" offset="0.5625"/><stop stop-opacity="1" stop-color="rgb(100%, 49.798584%, 63.09967%)" offset="0.578125"/><stop stop-opacity="1" stop-color="rgb(100%, 49.798584%, 63.09967%)" offset="0.585938"/><stop stop-opacity="1" stop-color="rgb(99.6521%, 49.778748%, 63.137817%)" offset="0.589844"/><stop stop-opacity="1" stop-color="rgb(99.304199%, 49.760437%, 63.175964%)" offset="0.59375"/><stop stop-opacity="1" stop-color="rgb(98.348999%, 49.708557%, 63.279724%)" offset="0.597656"/><stop stop-opacity="1" stop-color="rgb(97.395325%, 49.656677%, 63.38501%)" offset="0.601562"/><stop stop-opacity="1" stop-color="rgb(96.440125%, 49.603271%, 63.490295%)" offset="0.605469"/><stop stop-opacity="1" stop-color="rgb(95.484924%, 49.551392%, 63.595581%)" offset="0.609375"/><stop stop-opacity="1" stop-color="rgb(94.529724%, 49.497986%, 63.700867%)" offset="0.613281"/><stop stop-opacity="1" stop-color="rgb(93.57605%, 49.446106%, 63.806152%)" offset="0.617188"/><stop stop-opacity="1" stop-color="rgb(92.62085%, 49.3927%, 63.909912%)" offset="0.621094"/><stop stop-opacity="1" stop-color="rgb(91.665649%, 49.34082%, 64.015198%)" offset="0.625"/><stop stop-opacity="1" stop-color="rgb(90.710449%, 49.287415%, 64.120483%)" offset="0.628906"/><stop stop-opacity="1" stop-color="rgb(89.756775%, 49.235535%, 64.225769%)" offset="0.632812"/><stop stop-opacity="1" stop-color="rgb(88.801575%, 49.182129%, 64.331055%)" offset="0.636719"/><stop stop-opacity="1" stop-color="rgb(87.846375%, 49.130249%, 64.43634%)" offset="0.640625"/><stop stop-opacity="1" stop-color="rgb(86.891174%, 49.078369%, 64.5401%)" offset="0.644531"/><stop stop-opacity="1" stop-color="rgb(85.9375%, 49.026489%, 64.645386%)" offset="0.648438"/><stop stop-opacity="1" stop-color="rgb(84.9823%, 48.973083%, 64.750671%)" offset="0.652344"/><stop stop-opacity="1" stop-color="rgb(84.0271%, 48.921204%, 64.855957%)" offset="0.65625"/><stop stop-opacity="1" stop-color="rgb(83.071899%, 48.867798%, 64.961243%)" offset="0.660156"/><stop stop-opacity="1" stop-color="rgb(82.116699%, 48.815918%, 65.066528%)" offset="0.664063"/><stop stop-opacity="1" stop-color="rgb(81.161499%, 48.762512%, 65.170288%)" offset="0.667969"/><stop stop-opacity="1" stop-color="rgb(80.207825%, 48.710632%, 65.275574%)" offset="0.671875"/><stop stop-opacity="1" stop-color="rgb(79.252625%, 48.657227%, 65.380859%)" offset="0.675781"/><stop stop-opacity="1" stop-color="rgb(78.297424%, 48.605347%, 65.486145%)" offset="0.679688"/><stop stop-opacity="1" stop-color="rgb(77.342224%, 48.551941%, 65.591431%)" offset="0.683594"/><stop stop-opacity="1" stop-color="rgb(76.38855%, 48.500061%, 65.696716%)" offset="0.6875"/><stop stop-opacity="1" stop-color="rgb(75.43335%, 48.448181%, 65.802002%)" offset="0.691406"/><stop stop-opacity="1" stop-color="rgb(74.478149%, 48.396301%, 65.907288%)" offset="0.695312"/><stop stop-opacity="1" stop-color="rgb(73.522949%, 48.342896%, 66.011047%)" offset="0.699219"/><stop stop-opacity="1" stop-color="rgb(72.569275%, 48.291016%, 66.116333%)" offset="0.703125"/><stop stop-opacity="1" stop-color="rgb(71.614075%, 48.23761%, 66.221619%)" offset="0.707031"/><stop stop-opacity="1" stop-color="rgb(70.658875%, 48.18573%, 66.326904%)" offset="0.710938"/><stop stop-opacity="1" stop-color="rgb(69.703674%, 48.132324%, 66.43219%)" offset="0.714844"/><stop stop-opacity="1" stop-color="rgb(68.75%, 48.080444%, 66.537476%)" offset="0.71875"/><stop stop-opacity="1" stop-color="rgb(67.7948%, 48.027039%, 66.641235%)" offset="0.722656"/><stop stop-opacity="1" stop-color="rgb(66.8396%, 47.975159%, 66.746521%)" offset="0.726562"/><stop stop-opacity="1" stop-color="rgb(65.884399%, 47.921753%, 66.851807%)" offset="0.730469"/><stop stop-opacity="1" stop-color="rgb(64.929199%, 47.869873%, 66.957092%)" offset="0.734375"/><stop stop-opacity="1" stop-color="rgb(63.973999%, 47.817993%, 67.062378%)" offset="0.738281"/><stop stop-opacity="1" stop-color="rgb(63.020325%, 47.766113%, 67.167664%)" offset="0.742188"/><stop stop-opacity="1" stop-color="rgb(62.065125%, 47.712708%, 67.271423%)" offset="0.746094"/><stop stop-opacity="1" stop-color="rgb(61.109924%, 47.660828%, 67.376709%)" offset="0.75"/><stop stop-opacity="1" stop-color="rgb(60.154724%, 47.607422%, 67.481995%)" offset="0.753906"/><stop stop-opacity="1" stop-color="rgb(59.20105%, 47.555542%, 67.58728%)" offset="0.757813"/><stop stop-opacity="1" stop-color="rgb(58.24585%, 47.502136%, 67.692566%)" offset="0.761719"/><stop stop-opacity="1" stop-color="rgb(57.290649%, 47.450256%, 67.797852%)" offset="0.765625"/><stop stop-opacity="1" stop-color="rgb(56.335449%, 47.396851%, 67.901611%)" offset="0.769531"/><stop stop-opacity="1" stop-color="rgb(55.381775%, 47.344971%, 68.006897%)" offset="0.773438"/><stop stop-opacity="1" stop-color="rgb(54.426575%, 47.291565%, 68.112183%)" offset="0.777344"/><stop stop-opacity="1" stop-color="rgb(53.471375%, 47.239685%, 68.217468%)" offset="0.78125"/><stop stop-opacity="1" stop-color="rgb(52.516174%, 47.187805%, 68.322754%)" offset="0.785156"/><stop stop-opacity="1" stop-color="rgb(51.5625%, 47.135925%, 68.42804%)" offset="0.789062"/><stop stop-opacity="1" stop-color="rgb(50.6073%, 47.08252%, 68.531799%)" offset="0.792969"/><stop stop-opacity="1" stop-color="rgb(49.6521%, 47.03064%, 68.637085%)" offset="0.796875"/><stop stop-opacity="1" stop-color="rgb(48.696899%, 46.977234%, 68.742371%)" offset="0.800781"/><stop stop-opacity="1" stop-color="rgb(47.741699%, 46.925354%, 68.847656%)" offset="0.804688"/><stop stop-opacity="1" stop-color="rgb(46.786499%, 46.871948%, 68.952942%)" offset="0.808594"/><stop stop-opacity="1" stop-color="rgb(45.832825%, 46.820068%, 69.058228%)" offset="0.8125"/><stop stop-opacity="1" stop-color="rgb(44.877625%, 46.766663%, 69.161987%)" offset="0.816406"/><stop stop-opacity="1" stop-color="rgb(43.922424%, 46.714783%, 69.267273%)" offset="0.820313"/><stop stop-opacity="1" stop-color="rgb(42.967224%, 46.661377%, 69.372559%)" offset="0.824219"/><stop stop-opacity="1" stop-color="rgb(42.01355%, 46.609497%, 69.477844%)" offset="0.828125"/><stop stop-opacity="1" stop-color="rgb(41.05835%, 46.556091%, 69.58313%)" offset="0.832031"/><stop stop-opacity="1" stop-color="rgb(40.103149%, 46.504211%, 69.688416%)" offset="0.835938"/><stop stop-opacity="1" stop-color="rgb(39.147949%, 46.452332%, 69.792175%)" offset="0.839844"/><stop stop-opacity="1" stop-color="rgb(38.194275%, 46.400452%, 69.897461%)" offset="0.84375"/><stop stop-opacity="1" stop-color="rgb(37.239075%, 46.347046%, 70.002747%)" offset="0.847656"/><stop stop-opacity="1" stop-color="rgb(36.283875%, 46.295166%, 70.108032%)" offset="0.851563"/><stop stop-opacity="1" stop-color="rgb(35.328674%, 46.24176%, 70.213318%)" offset="0.855469"/><stop stop-opacity="1" stop-color="rgb(34.375%, 46.18988%, 70.318604%)" offset="0.859375"/><stop stop-opacity="1" stop-color="rgb(33.4198%, 46.136475%, 70.422363%)" offset="0.863281"/><stop stop-opacity="1" stop-color="rgb(32.4646%, 46.084595%, 70.527649%)" offset="0.867188"/><stop stop-opacity="1" stop-color="rgb(31.509399%, 46.031189%, 70.632935%)" offset="0.871094"/><stop stop-opacity="1" stop-color="rgb(30.554199%, 45.979309%, 70.73822%)" offset="0.875"/><stop stop-opacity="1" stop-color="rgb(29.598999%, 45.925903%, 70.843506%)" offset="0.878906"/><stop stop-opacity="1" stop-color="rgb(28.645325%, 45.874023%, 70.948792%)" offset="0.882812"/><stop stop-opacity="1" stop-color="rgb(27.690125%, 45.822144%, 71.052551%)" offset="0.886719"/><stop stop-opacity="1" stop-color="rgb(26.734924%, 45.770264%, 71.157837%)" offset="0.890625"/><stop stop-opacity="1" stop-color="rgb(25.779724%, 45.716858%, 71.263123%)" offset="0.894531"/><stop stop-opacity="1" stop-color="rgb(24.82605%, 45.664978%, 71.368408%)" offset="0.898438"/><stop stop-opacity="1" stop-color="rgb(23.87085%, 45.611572%, 71.473694%)" offset="0.902344"/><stop stop-opacity="1" stop-color="rgb(22.915649%, 45.559692%, 71.578979%)" offset="0.90625"/><stop stop-opacity="1" stop-color="rgb(21.960449%, 45.506287%, 71.682739%)" offset="0.910156"/><stop stop-opacity="1" stop-color="rgb(21.006775%, 45.454407%, 71.788025%)" offset="0.914062"/><stop stop-opacity="1" stop-color="rgb(20.051575%, 45.401001%, 71.893311%)" offset="0.917969"/><stop stop-opacity="1" stop-color="rgb(19.096375%, 45.349121%, 71.998596%)" offset="0.921875"/><stop stop-opacity="1" stop-color="rgb(18.141174%, 45.295715%, 72.103882%)" offset="0.925781"/><stop stop-opacity="1" stop-color="rgb(17.1875%, 45.243835%, 72.209167%)" offset="0.929688"/><stop stop-opacity="1" stop-color="rgb(16.2323%, 45.191956%, 72.312927%)" offset="0.933594"/><stop stop-opacity="1" stop-color="rgb(15.2771%, 45.140076%, 72.418213%)" offset="0.9375"/><stop stop-opacity="1" stop-color="rgb(14.321899%, 45.08667%, 72.523499%)" offset="0.941406"/><stop stop-opacity="1" stop-color="rgb(13.366699%, 45.03479%, 72.628784%)" offset="0.945312"/><stop stop-opacity="1" stop-color="rgb(12.411499%, 44.981384%, 72.73407%)" offset="0.949219"/><stop stop-opacity="1" stop-color="rgb(11.457825%, 44.929504%, 72.839355%)" offset="0.953125"/><stop stop-opacity="1" stop-color="rgb(10.502625%, 44.876099%, 72.943115%)" offset="0.957031"/><stop stop-opacity="1" stop-color="rgb(9.547424%, 44.824219%, 73.048401%)" offset="0.960938"/><stop stop-opacity="1" stop-color="rgb(8.592224%, 44.770813%, 73.153687%)" offset="0.964844"/><stop stop-opacity="1" stop-color="rgb(7.63855%, 44.718933%, 73.258972%)" offset="0.96875"/><stop stop-opacity="1" stop-color="rgb(6.68335%, 44.665527%, 73.364258%)" offset="0.972656"/><stop stop-opacity="1" stop-color="rgb(5.728149%, 44.613647%, 73.469543%)" offset="0.976562"/><stop stop-opacity="1" stop-color="rgb(4.772949%, 44.561768%, 73.573303%)" offset="0.980469"/><stop stop-opacity="1" stop-color="rgb(3.819275%, 44.509888%, 73.678589%)" offset="0.984375"/><stop stop-opacity="1" stop-color="rgb(2.864075%, 44.456482%, 73.783875%)" offset="0.988281"/><stop stop-opacity="1" stop-color="rgb(1.908875%, 44.404602%, 73.88916%)" offset="0.992188"/><stop stop-opacity="1" stop-color="rgb(0.953674%, 44.351196%, 73.994446%)" offset="0.996094"/><stop stop-opacity="1" stop-color="rgb(0%, 44.299316%, 74.099731%)" offset="1"/></linearGradient></defs><rect x="-37.5" width="450" fill="#ffffff" y="-37.499999" height="449.999989" fill-opacity="1"/><rect x="-37.5" width="450" fill="#ffffff" y="-37.499999" height="449.999989" fill-opacity="1"/><rect x="-37.5" width="450" fill="#000000" y="-37.499999" height="449.999989" fill-opacity="1"/><g clip-path="url(#2a6909c054)"><path fill="#b671ce" d="M 151.695312 96.796875 L 191.453125 136.546875 L 191.453125 81.121094 L 164.015625 73.84375 Z M 180.253906 148.867188 L 140.21875 109.113281 L 115.300781 123.390625 L 122.296875 148.867188 Z M 179.976562 165.941406 L 133.777344 165.941406 L 127.617188 187.214844 L 147.496094 198.414062 Z M 191.453125 177.976562 L 168.777344 200.09375 L 176.054688 214.089844 L 191.453125 209.890625 Z M 207.414062 176.019531 L 207.414062 202.050781 L 219.171875 203.453125 L 224.773438 193.375 Z M 220.851562 165.941406 L 235.691406 182.457031 L 245.769531 176.859375 L 242.691406 165.941406 Z M 220.011719 148.867188 L 255.570312 148.867188 L 260.050781 132.347656 L 245.210938 124.230469 Z M 208.8125 137.667969 L 241.570312 104.636719 L 230.371094 85.039062 L 207.691406 91.199219 Z M 208.8125 137.667969 " fill-opacity="1" fill-rule="evenodd"/></g><g clip-path="url(#8b0c5e4491)"><path fill="#02a89e" d="M 115.300781 123.390625 L 180.253906 148.867188 L 140.21875 109.113281 Z M 115.300781 123.390625 " fill-opacity="1" fill-rule="evenodd"/></g><g clip-path="url(#16717a6a73)"><path fill="#2aabe4" d="M 151.695312 96.796875 L 191.453125 136.546875 L 164.015625 73.84375 Z M 151.695312 96.796875 " fill-opacity="1" fill-rule="evenodd"/></g><g clip-path="url(#5ddf6f9add)"><path fill="#0071bd" d="M 164.015625 73.84375 L 191.453125 136.546875 L 191.453125 81.121094 Z M 164.015625 73.84375 " fill-opacity="1" fill-rule="evenodd"/></g><path fill="#952591" d="M 207.691406 91.199219 L 208.8125 137.667969 L 230.371094 85.039062 Z M 207.691406 91.199219 " fill-opacity="1" fill-rule="evenodd"/><path fill="#652d92" d="M 230.371094 85.039062 L 208.8125 137.667969 L 241.570312 104.636719 Z M 230.371094 85.039062 " fill-opacity="1" fill-rule="evenodd"/><g clip-path="url(#d3ee533877)"><path fill="#ee1f7a" d="M 245.210938 124.230469 L 220.011719 148.867188 L 260.050781 132.347656 Z M 245.210938 124.230469 " fill-opacity="1" fill-rule="evenodd"/></g><g clip-path="url(#96f756f543)"><path fill="#d3145a" d="M 260.050781 132.347656 L 220.011719 148.867188 L 255.570312 148.867188 Z M 260.050781 132.347656 " fill-opacity="1" fill-rule="evenodd"/></g><path fill="#ed1b24" d="M 242.691406 165.941406 L 220.851562 165.941406 L 245.769531 176.859375 Z M 242.691406 165.941406 " fill-opacity="1" fill-rule="evenodd"/><path fill="#c1262e" d="M 245.769531 176.859375 L 220.851562 165.941406 L 235.691406 182.457031 Z M 245.769531 176.859375 " fill-opacity="1" fill-rule="evenodd"/><path fill="#f8ed01" d="M 224.773438 193.375 L 207.414062 176.019531 L 219.171875 203.453125 Z M 224.773438 193.375 " fill-opacity="1" fill-rule="evenodd"/><path fill="#fab131" d="M 219.171875 203.453125 L 207.414062 176.019531 L 207.414062 202.050781 Z M 219.171875 203.453125 " fill-opacity="1" fill-rule="evenodd"/><g clip-path="url(#dfe7b3fc41)"><path fill="#fa9504" d="M 191.453125 209.890625 L 191.453125 177.976562 L 176.054688 214.089844 Z M 191.453125 209.890625 " fill-opacity="1" fill-rule="evenodd"/></g><g clip-path="url(#8edbd079e9)"><path fill="#f1422b" d="M 176.054688 214.089844 L 191.453125 177.976562 L 168.777344 200.09375 Z M 176.054688 214.089844 " fill-opacity="1" fill-rule="evenodd"/></g><path fill="#d6e100" d="M 147.496094 198.414062 L 179.976562 165.941406 L 127.617188 187.214844 Z M 147.496094 198.414062 " fill-opacity="1" fill-rule="evenodd"/><path fill="#8bc731" d="M 127.617188 187.214844 L 179.976562 165.941406 L 133.777344 165.941406 Z M 127.617188 187.214844 " fill-opacity="1" fill-rule="evenodd"/><g clip-path="url(#54d3afb861)"><path fill="#23b375" d="M 122.296875 148.867188 L 180.253906 148.867188 L 115.300781 123.390625 Z M 122.296875 148.867188 " fill-opacity="1" fill-rule="evenodd"/></g><g clip-path="url(#596d7169bb)"><g clip-path="url(#24678964e7)"><path fill="url(#e45f218e48)" d="M 180.496094 137.667969 L 180.496094 174.792969 L 217.621094 174.792969 L 217.621094 137.667969 Z M 180.496094 137.667969 " fill-rule="nonzero"/></g></g><g fill="#ffffff" fill-opacity="1"><g transform="translate(93.230466, 258.510601)"><g><path d="M 9.890625 -0.796875 C 9.972656 -0.796875 10.015625 -0.738281 10.015625 -0.625 L 10.015625 -0.15625 C 10.015625 -0.0507812 9.972656 0 9.890625 0 L 0.671875 0 C 0.566406 0 0.515625 -0.0507812 0.515625 -0.15625 L 0.515625 -0.625 C 0.515625 -0.738281 0.566406 -0.796875 0.671875 -0.796875 C 2.828125 -0.796875 4 -1.722656 4.1875 -3.578125 C 4.238281 -4.117188 4.289062 -5.015625 4.34375 -6.265625 C 4.40625 -7.523438 4.582031 -10.234375 4.875 -14.390625 C 5.164062 -18.546875 5.3125 -21.90625 5.3125 -24.46875 L 5.3125 -25.203125 C 5.3125 -25.734375 5.007812 -26.175781 4.40625 -26.53125 C 3.8125 -26.882812 3.375 -27.0625 3.09375 -27.0625 C 2.820312 -27.0625 2.6875 -27.113281 2.6875 -27.21875 L 2.6875 -27.6875 C 2.6875 -27.789062 2.738281 -27.84375 2.84375 -27.84375 L 8.546875 -27.84375 C 8.796875 -27.8125 9.003906 -27.671875 9.171875 -27.421875 L 18.421875 -6.78125 C 18.492188 -6.6875 18.546875 -6.601562 18.578125 -6.53125 C 18.617188 -6.46875 18.71875 -6.4375 18.875 -6.4375 C 19.039062 -6.445312 19.160156 -6.566406 19.234375 -6.796875 L 28.40625 -27.0625 C 28.675781 -27.582031 28.925781 -27.84375 29.15625 -27.84375 L 34.90625 -27.84375 C 35.007812 -27.84375 35.0625 -27.789062 35.0625 -27.6875 L 35.0625 -27.21875 C 35.0625 -27.113281 35.03125 -27.0625 34.96875 -27.0625 C 34.570312 -27.0625 34.082031 -26.929688 33.5 -26.671875 C 32.613281 -26.273438 32.171875 -25.6875 32.171875 -24.90625 L 33.359375 -3.078125 C 33.390625 -2.390625 33.742188 -1.835938 34.421875 -1.421875 C 35.109375 -1.003906 36.003906 -0.796875 37.109375 -0.796875 C 37.210938 -0.796875 37.265625 -0.738281 37.265625 -0.625 L 37.265625 -0.15625 C 37.265625 -0.0507812 37.210938 0 37.109375 0 L 25.890625 0 C 25.785156 0 25.734375 -0.0507812 25.734375 -0.15625 L 25.734375 -0.625 C 25.734375 -0.738281 25.785156 -0.796875 25.890625 -0.796875 C 28.253906 -0.796875 29.4375 -1.367188 29.4375 -2.515625 L 28.390625 -21.375 C 28.367188 -21.5 28.328125 -21.5625 28.265625 -21.5625 C 28.210938 -21.5625 28.164062 -21.503906 28.125 -21.390625 L 18.3125 -0.140625 C 18.257812 -0.046875 18.109375 0 17.859375 0 C 17.609375 0 17.460938 -0.0507812 17.421875 -0.15625 L 7.75 -21.453125 C 7.664062 -21.640625 7.585938 -21.734375 7.515625 -21.734375 C 7.441406 -21.734375 7.40625 -21.585938 7.40625 -21.296875 C 7.40625 -20.691406 7.242188 -17.832031 6.921875 -12.71875 C 6.609375 -7.613281 6.453125 -4.425781 6.453125 -3.15625 L 6.453125 -2.34375 C 6.617188 -1.59375 7.363281 -1.109375 8.6875 -0.890625 C 9.070312 -0.828125 9.472656 -0.796875 9.890625 -0.796875 Z M 9.890625 -0.796875 "/></g></g></g><g fill="#ffffff" fill-opacity="1"><g transform="translate(132.906681, 258.510601)"><g><path d="M 0.140625 -0.15625 L 0.140625 -0.71875 C 0.140625 -0.820312 0.191406 -0.875 0.296875 -0.875 L 0.734375 -0.875 C 1.285156 -0.90625 1.847656 -0.925781 2.421875 -0.9375 C 3.003906 -0.945312 3.535156 -1.015625 4.015625 -1.140625 C 5.085938 -1.460938 5.625 -2.253906 5.625 -3.515625 L 5.625 -24.328125 C 5.625 -25.640625 4.851562 -26.472656 3.3125 -26.828125 C 2.882812 -26.921875 2.445312 -27 2 -27.0625 L 1.578125 -27.0625 C 1.472656 -27.0625 1.421875 -27.113281 1.421875 -27.21875 L 1.421875 -27.6875 C 1.421875 -27.789062 1.472656 -27.84375 1.578125 -27.84375 L 20.359375 -27.84375 C 20.597656 -27.84375 20.769531 -27.800781 20.875 -27.71875 C 20.976562 -27.632812 21.046875 -27.445312 21.078125 -27.15625 L 21.4375 -21.4375 C 21.4375 -21.300781 21.335938 -21.234375 21.140625 -21.234375 C 20.941406 -21.234375 20.796875 -21.289062 20.703125 -21.40625 C 20.617188 -21.539062 20.515625 -22.019531 20.390625 -22.84375 C 20.265625 -23.675781 20.035156 -24.367188 19.703125 -24.921875 C 19.378906 -25.472656 18.800781 -25.820312 17.96875 -25.96875 L 9.734375 -25.96875 C 9.566406 -25.96875 9.484375 -25.882812 9.484375 -25.71875 L 9.484375 -15.5 C 9.484375 -15.375 9.546875 -15.3125 9.671875 -15.3125 L 16.515625 -15.3125 C 18.273438 -15.3125 19.15625 -16.335938 19.15625 -18.390625 C 19.15625 -18.492188 19.207031 -18.546875 19.3125 -18.546875 L 19.796875 -18.546875 C 19.898438 -18.546875 19.953125 -18.492188 19.953125 -18.390625 L 19.953125 -9.9375 C 19.953125 -9.832031 19.898438 -9.78125 19.796875 -9.78125 L 19.3125 -9.78125 C 19.207031 -9.78125 19.15625 -9.832031 19.15625 -9.9375 C 19.15625 -11.882812 18.59375 -13.007812 17.46875 -13.3125 C 17.144531 -13.394531 16.804688 -13.4375 16.453125 -13.4375 L 9.671875 -13.4375 C 9.546875 -13.4375 9.484375 -13.367188 9.484375 -13.234375 L 9.484375 -3.609375 C 9.484375 -2.628906 9.9375 -2.070312 10.84375 -1.9375 C 11.101562 -1.894531 11.378906 -1.875 11.671875 -1.875 L 18.25 -1.875 C 19.601562 -1.875 20.65625 -2.472656 21.40625 -3.671875 C 21.945312 -4.523438 22.28125 -5.503906 22.40625 -6.609375 C 22.4375 -6.984375 22.628906 -7.171875 22.984375 -7.171875 C 23.148438 -7.171875 23.234375 -7.082031 23.234375 -6.90625 L 22.578125 -0.28125 C 22.492188 -0.09375 22.398438 0 22.296875 0 L 0.296875 0 C 0.191406 0 0.140625 -0.0507812 0.140625 -0.15625 Z M 0.140625 -0.15625 "/></g></g></g><g fill="#ffffff" fill-opacity="1"><g transform="translate(159.448925, 258.510601)"><g><path d="M 28.78125 -3.578125 C 28.78125 -1.796875 30.007812 -0.867188 32.46875 -0.796875 C 32.570312 -0.796875 32.625 -0.738281 32.625 -0.625 L 32.625 -0.15625 C 32.625 -0.0507812 32.570312 0 32.46875 0 L 19.90625 0 C 19.800781 0 19.75 -0.0507812 19.75 -0.15625 L 19.75 -0.625 C 19.75 -0.738281 20.078125 -0.796875 20.734375 -0.796875 C 21.398438 -0.796875 22.148438 -0.9375 22.984375 -1.21875 C 24.273438 -1.644531 24.921875 -2.359375 24.921875 -3.359375 L 24.921875 -12.78125 C 24.921875 -12.914062 24.898438 -13 24.859375 -13.03125 C 24.828125 -13.070312 24.742188 -13.09375 24.609375 -13.09375 L 9.046875 -13.09375 C 8.910156 -13.09375 8.820312 -13.070312 8.78125 -13.03125 C 8.75 -13 8.734375 -12.914062 8.734375 -12.78125 L 8.734375 -3.15625 C 8.734375 -1.582031 9.898438 -0.796875 12.234375 -0.796875 C 12.335938 -0.796875 12.390625 -0.738281 12.390625 -0.625 L 12.390625 -0.15625 C 12.390625 -0.0507812 12.34375 0 12.25 0 L 1.34375 0 C 1.238281 0 1.1875 -0.0507812 1.1875 -0.15625 L 1.1875 -0.625 C 1.1875 -0.738281 1.316406 -0.796875 1.578125 -0.796875 C 3.773438 -0.796875 4.875 -1.734375 4.875 -3.609375 L 4.875 -24.6875 C 4.875 -26.226562 3.960938 -27.046875 2.140625 -27.140625 C 1.859375 -27.148438 1.71875 -27.207031 1.71875 -27.3125 L 1.71875 -27.6875 C 1.71875 -27.789062 1.765625 -27.84375 1.859375 -27.84375 L 11.765625 -27.84375 C 11.878906 -27.84375 11.9375 -27.789062 11.9375 -27.6875 L 11.9375 -27.3125 C 11.9375 -27.238281 11.8125 -27.203125 11.5625 -27.203125 C 9.675781 -27.203125 8.734375 -26.273438 8.734375 -24.421875 L 8.734375 -15.28125 C 8.734375 -15.15625 8.75 -15.070312 8.78125 -15.03125 C 8.820312 -14.988281 8.910156 -14.96875 9.046875 -14.96875 L 24.609375 -14.96875 C 24.742188 -14.96875 24.828125 -14.988281 24.859375 -15.03125 C 24.898438 -15.070312 24.921875 -15.15625 24.921875 -15.28125 L 24.921875 -24.734375 C 24.898438 -24.847656 24.882812 -24.953125 24.875 -25.046875 C 24.875 -25.148438 24.851562 -25.304688 24.8125 -25.515625 C 24.71875 -25.960938 24.25 -26.328125 23.40625 -26.609375 C 22.5625 -26.898438 21.609375 -27.082031 20.546875 -27.15625 C 20.441406 -27.15625 20.390625 -27.207031 20.390625 -27.3125 L 20.390625 -27.6875 C 20.390625 -27.789062 20.429688 -27.84375 20.515625 -27.84375 L 31.921875 -27.84375 C 32.023438 -27.84375 32.078125 -27.789062 32.078125 -27.6875 L 32.078125 -27.3125 C 32.078125 -27.238281 31.953125 -27.203125 31.703125 -27.203125 C 29.753906 -27.203125 28.78125 -26.273438 28.78125 -24.421875 Z M 28.78125 -3.578125 "/></g></g></g><g fill="#ffffff" fill-opacity="1"><g transform="translate(194.83932, 258.510601)"><g><path d="M 0.140625 -0.15625 L 0.140625 -0.71875 C 0.140625 -0.820312 0.191406 -0.875 0.296875 -0.875 L 0.734375 -0.875 C 1.285156 -0.90625 1.847656 -0.925781 2.421875 -0.9375 C 3.003906 -0.945312 3.535156 -1.015625 4.015625 -1.140625 C 5.085938 -1.460938 5.625 -2.253906 5.625 -3.515625 L 5.625 -24.328125 C 5.625 -25.640625 4.851562 -26.472656 3.3125 -26.828125 C 2.882812 -26.921875 2.445312 -27 2 -27.0625 L 1.578125 -27.0625 C 1.472656 -27.0625 1.421875 -27.113281 1.421875 -27.21875 L 1.421875 -27.6875 C 1.421875 -27.789062 1.472656 -27.84375 1.578125 -27.84375 L 20.359375 -27.84375 C 20.597656 -27.84375 20.769531 -27.800781 20.875 -27.71875 C 20.976562 -27.632812 21.046875 -27.445312 21.078125 -27.15625 L 21.4375 -21.4375 C 21.4375 -21.300781 21.335938 -21.234375 21.140625 -21.234375 C 20.941406 -21.234375 20.796875 -21.289062 20.703125 -21.40625 C 20.617188 -21.539062 20.515625 -22.019531 20.390625 -22.84375 C 20.265625 -23.675781 20.035156 -24.367188 19.703125 -24.921875 C 19.378906 -25.472656 18.800781 -25.820312 17.96875 -25.96875 L 9.734375 -25.96875 C 9.566406 -25.96875 9.484375 -25.882812 9.484375 -25.71875 L 9.484375 -15.5 C 9.484375 -15.375 9.546875 -15.3125 9.671875 -15.3125 L 16.515625 -15.3125 C 18.273438 -15.3125 19.15625 -16.335938 19.15625 -18.390625 C 19.15625 -18.492188 19.207031 -18.546875 19.3125 -18.546875 L 19.796875 -18.546875 C 19.898438 -18.546875 19.953125 -18.492188 19.953125 -18.390625 L 19.953125 -9.9375 C 19.953125 -9.832031 19.898438 -9.78125 19.796875 -9.78125 L 19.3125 -9.78125 C 19.207031 -9.78125 19.15625 -9.832031 19.15625 -9.9375 C 19.15625 -11.882812 18.59375 -13.007812 17.46875 -13.3125 C 17.144531 -13.394531 16.804688 -13.4375 16.453125 -13.4375 L 9.671875 -13.4375 C 9.546875 -13.4375 9.484375 -13.367188 9.484375 -13.234375 L 9.484375 -3.609375 C 9.484375 -2.628906 9.9375 -2.070312 10.84375 -1.9375 C 11.101562 -1.894531 11.378906 -1.875 11.671875 -1.875 L 18.25 -1.875 C 19.601562 -1.875 20.65625 -2.472656 21.40625 -3.671875 C 21.945312 -4.523438 22.28125 -5.503906 22.40625 -6.609375 C 22.4375 -6.984375 22.628906 -7.171875 22.984375 -7.171875 C 23.148438 -7.171875 23.234375 -7.082031 23.234375 -6.90625 L 22.578125 -0.28125 C 22.492188 -0.09375 22.398438 0 22.296875 0 L 0.296875 0 C 0.191406 0 0.140625 -0.0507812 0.140625 -0.15625 Z M 0.140625 -0.15625 "/></g></g></g><g fill="#ffffff" fill-opacity="1"><g transform="translate(221.381561, 258.510601)"><g><path d="M 1.03125 0 C 0.925781 0 0.875 -0.128906 0.875 -0.390625 L 0.875 -0.625 C 0.875 -0.738281 0.925781 -0.796875 1.03125 -0.796875 C 1.101562 -0.796875 1.222656 -0.804688 1.390625 -0.828125 C 1.566406 -0.859375 1.75 -0.882812 1.9375 -0.90625 C 2.125 -0.9375 2.296875 -0.96875 2.453125 -1 C 2.609375 -1.03125 2.71875 -1.050781 2.78125 -1.0625 C 4.125 -1.363281 4.796875 -2.128906 4.796875 -3.359375 L 4.796875 -24.21875 C 4.796875 -25.351562 4.34375 -26.15625 3.4375 -26.625 C 2.894531 -26.914062 2.316406 -27.0625 1.703125 -27.0625 L 0.953125 -27.0625 C 0.847656 -27.0625 0.796875 -27.113281 0.796875 -27.21875 L 0.796875 -27.6875 C 0.796875 -27.789062 0.875 -27.84375 1.03125 -27.84375 L 11.875 -28.140625 L 13.859375 -28.140625 C 16.191406 -27.984375 18.144531 -27.140625 19.71875 -25.609375 C 21.289062 -24.078125 22.078125 -22.1875 22.078125 -19.9375 C 22.078125 -17.695312 21.144531 -15.953125 19.28125 -14.703125 C 18.695312 -14.316406 18.070312 -13.972656 17.40625 -13.671875 L 23.390625 -3.890625 C 24.429688 -2.179688 25.828125 -0.976562 27.578125 -0.28125 C 27.722656 -0.238281 27.796875 -0.144531 27.796875 0 C 27.796875 0.332031 27.578125 0.5 27.140625 0.5 C 24.179688 0.5 21.820312 -0.628906 20.0625 -2.890625 C 19.6875 -3.390625 19.304688 -3.945312 18.921875 -4.5625 L 13.8125 -12.578125 L 9.109375 -12.796875 L 8.953125 -12.796875 C 8.753906 -12.796875 8.65625 -12.703125 8.65625 -12.515625 L 8.65625 -3.421875 C 8.65625 -2.691406 8.859375 -2.148438 9.265625 -1.796875 C 9.671875 -1.441406 10.375 -1.195312 11.375 -1.0625 C 11.632812 -1.019531 11.957031 -0.960938 12.34375 -0.890625 C 12.726562 -0.828125 12.988281 -0.796875 13.125 -0.796875 C 13.257812 -0.796875 13.328125 -0.738281 13.328125 -0.625 L 13.328125 -0.15625 C 13.328125 -0.0507812 13.273438 0 13.171875 0 Z M 10.25 -27.109375 C 10.09375 -27.097656 9.925781 -27.085938 9.75 -27.078125 C 9.570312 -27.078125 9.34375 -27.070312 9.0625 -27.0625 C 8.789062 -27.0625 8.65625 -26.957031 8.65625 -26.75 L 8.65625 -14.78125 L 8.6875 -14.1875 C 8.726562 -13.90625 8.851562 -13.757812 9.0625 -13.75 L 11.078125 -13.625 C 14.773438 -13.625 17.007812 -14.941406 17.78125 -17.578125 C 18.03125 -18.410156 18.15625 -19.359375 18.15625 -20.421875 C 18.15625 -22.503906 17.503906 -24.144531 16.203125 -25.34375 C 14.910156 -26.539062 13.253906 -27.140625 11.234375 -27.140625 C 11.054688 -27.140625 10.882812 -27.132812 10.71875 -27.125 C 10.5625 -27.125 10.40625 -27.117188 10.25 -27.109375 Z M 10.25 -27.109375 "/></g></g></g><g fill="#ffffff" fill-opacity="1"><g transform="translate(250.985102, 258.510601)"><g><path d="M 8.0625 -24.21875 C 8.0625 -21.769531 6.910156 -19.726562 4.609375 -18.09375 C 4.078125 -17.707031 3.671875 -17.515625 3.390625 -17.515625 C 3.210938 -17.515625 3.125 -17.628906 3.125 -17.859375 C 3.125 -18.097656 3.160156 -18.265625 3.234375 -18.359375 C 3.316406 -18.460938 3.410156 -18.550781 3.515625 -18.625 C 3.617188 -18.707031 3.71875 -18.78125 3.8125 -18.84375 C 3.914062 -18.90625 4.039062 -19 4.1875 -19.125 C 5.5 -20.320312 6.15625 -21.40625 6.15625 -22.375 C 6.15625 -22.945312 5.914062 -23.234375 5.4375 -23.234375 C 4.113281 -23.234375 3.238281 -23.644531 2.8125 -24.46875 C 2.644531 -24.769531 2.5625 -25.191406 2.5625 -25.734375 C 2.5625 -26.273438 2.800781 -26.757812 3.28125 -27.1875 C 3.769531 -27.625 4.289062 -27.84375 4.84375 -27.84375 C 5.863281 -27.84375 6.65625 -27.4375 7.21875 -26.625 C 7.78125 -25.820312 8.0625 -25.019531 8.0625 -24.21875 Z M 8.0625 -24.21875 "/></g></g></g><g fill="#ffffff" fill-opacity="1"><g transform="translate(261.509824, 258.510601)"><g><path d="M 16.671875 -27.609375 C 16.804688 -27.609375 16.875 -27.460938 16.875 -27.171875 L 17.375 -22.96875 C 17.4375 -22.707031 17.46875 -22.539062 17.46875 -22.46875 C 17.46875 -22.394531 17.363281 -22.359375 17.15625 -22.359375 C 16.945312 -22.359375 16.816406 -22.382812 16.765625 -22.4375 C 16.710938 -22.488281 16.660156 -22.578125 16.609375 -22.703125 C 16.554688 -22.828125 16.492188 -22.96875 16.421875 -23.125 C 16.347656 -23.289062 16.273438 -23.453125 16.203125 -23.609375 C 15.921875 -24.210938 15.484375 -24.8125 14.890625 -25.40625 C 13.441406 -26.800781 11.8125 -27.5 10 -27.5 C 8.90625 -27.5 7.867188 -27.140625 6.890625 -26.421875 C 5.921875 -25.710938 5.4375 -24.875 5.4375 -23.90625 C 5.4375 -22.9375 5.613281 -22.097656 5.96875 -21.390625 C 6.332031 -20.679688 6.8125 -20.023438 7.40625 -19.421875 C 8 -18.816406 8.675781 -18.234375 9.4375 -17.671875 C 10.207031 -17.117188 10.984375 -16.5625 11.765625 -16 C 13.859375 -14.539062 15.347656 -13.289062 16.234375 -12.25 C 17.617188 -10.644531 18.367188 -8.835938 18.484375 -6.828125 C 18.484375 -4.585938 17.625 -2.800781 15.90625 -1.46875 C 14.1875 -0.132812 12.191406 0.53125 9.921875 0.53125 C 8.453125 0.53125 7.285156 0.378906 6.421875 0.078125 C 5.566406 -0.210938 4.972656 -0.421875 4.640625 -0.546875 C 4.304688 -0.679688 4.0625 -0.75 3.90625 -0.75 C 3.757812 -0.75 3.671875 -0.742188 3.640625 -0.734375 L 2.671875 -0.53125 C 2.492188 -0.53125 2.382812 -0.671875 2.34375 -0.953125 C 1.96875 -4.210938 1.78125 -5.941406 1.78125 -6.140625 C 1.78125 -6.347656 1.796875 -6.488281 1.828125 -6.5625 C 1.859375 -6.632812 1.945312 -6.671875 2.09375 -6.671875 C 2.457031 -6.671875 2.789062 -6.144531 3.09375 -5.09375 C 4.476562 -2.132812 6.78125 -0.65625 10 -0.65625 C 11.46875 -0.65625 12.722656 -1.101562 13.765625 -2 C 14.816406 -2.894531 15.34375 -4.054688 15.34375 -5.484375 C 15.34375 -7.773438 13.972656 -9.910156 11.234375 -11.890625 C 10.460938 -12.441406 9.34375 -13.210938 7.875 -14.203125 C 6.414062 -15.191406 5.253906 -16.179688 4.390625 -17.171875 C 3.023438 -18.691406 2.34375 -20.390625 2.34375 -22.265625 C 2.34375 -24.140625 3.085938 -25.675781 4.578125 -26.875 C 6.078125 -28.082031 7.796875 -28.6875 9.734375 -28.6875 C 10.734375 -28.6875 11.835938 -28.515625 13.046875 -28.171875 C 14.253906 -27.828125 15.09375 -27.59375 15.5625 -27.46875 Z M 16.671875 -27.609375 "/></g></g></g><g fill="#ffffff" fill-opacity="1"><g transform="translate(135.148944, 296.138411)"><g><path d="M 8.875 -7.953125 C 9.726562 -7.734375 10.382812 -7.3125 10.84375 -6.6875 C 11.3125 -6.070312 11.546875 -5.257812 11.546875 -4.25 C 11.546875 -2.9375 11.144531 -1.898438 10.34375 -1.140625 C 9.550781 -0.378906 8.460938 0 7.078125 0 L 1.703125 0 L 1.703125 -14.765625 L 6.578125 -14.765625 C 7.890625 -14.765625 8.921875 -14.421875 9.671875 -13.734375 C 10.429688 -13.054688 10.8125 -12.144531 10.8125 -11 C 10.8125 -10.257812 10.644531 -9.625 10.3125 -9.09375 C 9.976562 -8.570312 9.5 -8.191406 8.875 -7.953125 Z M 3.328125 -8.46875 L 6.78125 -8.46875 C 8.320312 -8.46875 9.09375 -9.3125 9.09375 -11 C 9.09375 -11.769531 8.867188 -12.363281 8.421875 -12.78125 C 7.972656 -13.195312 7.351562 -13.40625 6.5625 -13.40625 L 3.328125 -13.40625 Z M 6.859375 -1.34375 C 7.785156 -1.34375 8.507812 -1.601562 9.03125 -2.125 C 9.5625 -2.644531 9.828125 -3.351562 9.828125 -4.25 C 9.828125 -5.144531 9.5625 -5.847656 9.03125 -6.359375 C 8.507812 -6.867188 7.785156 -7.125 6.859375 -7.125 L 3.328125 -7.125 L 3.328125 -1.34375 Z M 6.859375 -1.34375 "/></g></g></g><g fill="#ffffff" fill-opacity="1"><g transform="translate(149.314496, 296.138411)"><g><path d="M 1.703125 0 L 1.703125 -14.765625 L 3.328125 -14.765625 L 3.328125 -1.34375 L 9.984375 -1.34375 L 9.984375 0 Z M 1.703125 0 "/></g></g></g><g fill="#ffffff" fill-opacity="1"><g transform="translate(161.357454, 296.138411)"><g><path d="M 7.53125 0.34375 C 6.3125 0.34375 5.21875 0.015625 4.25 -0.640625 C 3.289062 -1.296875 2.539062 -2.207031 2 -3.375 C 1.457031 -4.539062 1.1875 -5.867188 1.1875 -7.359375 C 1.1875 -8.847656 1.457031 -10.179688 2 -11.359375 C 2.539062 -12.535156 3.289062 -13.453125 4.25 -14.109375 C 5.21875 -14.765625 6.3125 -15.09375 7.53125 -15.09375 C 8.757812 -15.09375 9.851562 -14.765625 10.8125 -14.109375 C 11.769531 -13.453125 12.519531 -12.535156 13.0625 -11.359375 C 13.601562 -10.179688 13.875 -8.84375 13.875 -7.34375 C 13.875 -5.851562 13.601562 -4.523438 13.0625 -3.359375 C 12.519531 -2.203125 11.769531 -1.296875 10.8125 -0.640625 C 9.851562 0.015625 8.757812 0.34375 7.53125 0.34375 Z M 7.53125 -1.140625 C 8.425781 -1.140625 9.226562 -1.40625 9.9375 -1.9375 C 10.65625 -2.46875 11.21875 -3.203125 11.625 -4.140625 C 12.03125 -5.085938 12.234375 -6.160156 12.234375 -7.359375 C 12.234375 -8.554688 12.03125 -9.628906 11.625 -10.578125 C 11.21875 -11.535156 10.65625 -12.28125 9.9375 -12.8125 C 9.226562 -13.351562 8.425781 -13.625 7.53125 -13.625 C 6.632812 -13.625 5.828125 -13.351562 5.109375 -12.8125 C 4.398438 -12.28125 3.84375 -11.535156 3.4375 -10.578125 C 3.039062 -9.628906 2.84375 -8.554688 2.84375 -7.359375 C 2.84375 -6.160156 3.039062 -5.085938 3.4375 -4.140625 C 3.84375 -3.203125 4.398438 -2.46875 5.109375 -1.9375 C 5.828125 -1.40625 6.632812 -1.140625 7.53125 -1.140625 Z M 7.53125 -1.140625 "/></g></g></g><g fill="#ffffff" fill-opacity="1"><g transform="translate(178.16541, 296.138411)"><g><path d="M 6.65625 0.34375 C 5.40625 0.34375 4.328125 0.0351562 3.421875 -0.578125 C 2.523438 -1.191406 1.832031 -2.070312 1.34375 -3.21875 C 0.863281 -4.363281 0.625 -5.738281 0.625 -7.34375 C 0.625 -8.957031 0.863281 -10.34375 1.34375 -11.5 C 1.832031 -12.664062 2.523438 -13.554688 3.421875 -14.171875 C 4.328125 -14.785156 5.40625 -15.09375 6.65625 -15.09375 C 7.789062 -15.09375 8.769531 -14.835938 9.59375 -14.328125 C 10.425781 -13.816406 11.140625 -13.0625 11.734375 -12.0625 L 10.453125 -11.15625 C 9.546875 -12.800781 8.28125 -13.625 6.65625 -13.625 C 5.289062 -13.625 4.226562 -13.070312 3.46875 -11.96875 C 2.71875 -10.863281 2.34375 -9.328125 2.34375 -7.359375 C 2.34375 -5.410156 2.722656 -3.882812 3.484375 -2.78125 C 4.253906 -1.675781 5.3125 -1.125 6.65625 -1.125 C 7.40625 -1.125 8.078125 -1.300781 8.671875 -1.65625 C 9.273438 -2.019531 9.75 -2.554688 10.09375 -3.265625 C 10.4375 -3.972656 10.609375 -4.84375 10.609375 -5.875 L 7.125 -5.875 L 7.125 -7.21875 L 12.21875 -7.21875 L 12.21875 -5.875 C 12.21875 -4.53125 11.976562 -3.390625 11.5 -2.453125 C 11.019531 -1.523438 10.359375 -0.828125 9.515625 -0.359375 C 8.671875 0.109375 7.71875 0.34375 6.65625 0.34375 Z M 6.65625 0.34375 "/></g></g></g><g fill="#ffffff" fill-opacity="1"><g transform="translate(193.02405, 296.138411)"><g><path d="M 6.65625 0.34375 C 5.570312 0.34375 4.515625 0.0703125 3.484375 -0.46875 C 2.460938 -1.007812 1.613281 -1.738281 0.9375 -2.65625 L 2.25 -3.828125 C 2.769531 -3.003906 3.429688 -2.347656 4.234375 -1.859375 C 5.046875 -1.378906 5.921875 -1.140625 6.859375 -1.140625 C 7.890625 -1.140625 8.671875 -1.367188 9.203125 -1.828125 C 9.734375 -2.285156 10 -2.90625 10 -3.6875 C 10 -4.53125 9.710938 -5.179688 9.140625 -5.640625 C 8.578125 -6.097656 7.675781 -6.5 6.4375 -6.84375 C 3.3125 -7.601562 1.75 -9.019531 1.75 -11.09375 C 1.75 -12.375 2.164062 -13.359375 3 -14.046875 C 3.84375 -14.742188 5.007812 -15.09375 6.5 -15.09375 C 7.582031 -15.09375 8.550781 -14.890625 9.40625 -14.484375 C 10.269531 -14.078125 11.039062 -13.457031 11.71875 -12.625 L 10.4375 -11.546875 C 9.914062 -12.253906 9.34375 -12.773438 8.71875 -13.109375 C 8.101562 -13.453125 7.363281 -13.625 6.5 -13.625 C 5.582031 -13.625 4.835938 -13.410156 4.265625 -12.984375 C 3.691406 -12.554688 3.40625 -11.972656 3.40625 -11.234375 C 3.40625 -10.484375 3.671875 -9.890625 4.203125 -9.453125 C 4.734375 -9.015625 5.632812 -8.644531 6.90625 -8.34375 C 8.40625 -7.9375 9.570312 -7.378906 10.40625 -6.671875 C 11.238281 -5.960938 11.65625 -4.96875 11.65625 -3.6875 C 11.65625 -2.882812 11.453125 -2.179688 11.046875 -1.578125 C 10.640625 -0.972656 10.054688 -0.5 9.296875 -0.15625 C 8.546875 0.175781 7.664062 0.34375 6.65625 0.34375 Z M 6.65625 0.34375 "/></g></g></g><g fill="#ffffff" fill-opacity="1"><g transform="translate(207.384533, 296.138411)"><g/></g></g><g fill="#ffffff" fill-opacity="1"><g transform="translate(213.947754, 296.138411)"><g><path d="M 5.890625 0.34375 C 4.921875 0.34375 4.03125 0.015625 3.21875 -0.640625 C 2.414062 -1.304688 1.78125 -2.226562 1.3125 -3.40625 C 0.851562 -4.582031 0.625 -5.910156 0.625 -7.390625 C 0.625 -8.859375 0.851562 -10.179688 1.3125 -11.359375 C 1.78125 -12.535156 2.414062 -13.453125 3.21875 -14.109375 C 4.019531 -14.765625 4.90625 -15.09375 5.875 -15.09375 C 6.832031 -15.09375 7.710938 -14.765625 8.515625 -14.109375 C 9.316406 -13.453125 9.945312 -12.535156 10.40625 -11.359375 C 10.875 -10.179688 11.109375 -8.859375 11.109375 -7.390625 C 11.109375 -5.910156 10.875 -4.582031 10.40625 -3.40625 C 9.945312 -2.226562 9.320312 -1.304688 8.53125 -0.640625 C 7.738281 0.015625 6.859375 0.34375 5.890625 0.34375 Z M 5.875 -1.078125 C 6.5625 -1.078125 7.171875 -1.335938 7.703125 -1.859375 C 8.242188 -2.390625 8.664062 -3.132812 8.96875 -4.09375 C 9.269531 -5.0625 9.421875 -6.160156 9.421875 -7.390625 C 9.421875 -8.609375 9.269531 -9.691406 8.96875 -10.640625 C 8.664062 -11.597656 8.242188 -12.34375 7.703125 -12.875 C 7.171875 -13.40625 6.5625 -13.671875 5.875 -13.671875 C 5.175781 -13.671875 4.554688 -13.40625 4.015625 -12.875 C 3.472656 -12.34375 3.050781 -11.597656 2.75 -10.640625 C 2.445312 -9.691406 2.296875 -8.609375 2.296875 -7.390625 C 2.296875 -6.160156 2.445312 -5.0625 2.75 -4.09375 C 3.050781 -3.132812 3.472656 -2.390625 4.015625 -1.859375 C 4.554688 -1.335938 5.175781 -1.078125 5.875 -1.078125 Z M 5.875 -1.078125 "/></g></g></g><g fill="#ffffff" fill-opacity="1"><g transform="translate(227.831731, 296.138411)"><g><path d="M 6.015625 0.34375 C 5.078125 0.34375 4.222656 0.15625 3.453125 -0.21875 C 2.691406 -0.59375 2.085938 -1.125 1.640625 -1.8125 C 1.191406 -2.507812 0.96875 -3.304688 0.96875 -4.203125 C 0.96875 -5.203125 1.222656 -6.023438 1.734375 -6.671875 C 2.253906 -7.316406 3 -7.785156 3.96875 -8.078125 C 2.394531 -8.640625 1.609375 -9.691406 1.609375 -11.234375 C 1.609375 -12.035156 1.804688 -12.722656 2.203125 -13.296875 C 2.597656 -13.867188 3.128906 -14.3125 3.796875 -14.625 C 4.472656 -14.9375 5.207031 -15.09375 6 -15.09375 C 6.8125 -15.09375 7.550781 -14.9375 8.21875 -14.625 C 8.882812 -14.3125 9.410156 -13.863281 9.796875 -13.28125 C 10.191406 -12.695312 10.390625 -12.015625 10.390625 -11.234375 C 10.390625 -9.691406 9.613281 -8.640625 8.0625 -8.078125 C 9.039062 -7.742188 9.773438 -7.265625 10.265625 -6.640625 C 10.765625 -6.015625 11.015625 -5.203125 11.015625 -4.203125 C 11.015625 -3.316406 10.796875 -2.523438 10.359375 -1.828125 C 9.929688 -1.140625 9.332031 -0.601562 8.5625 -0.21875 C 7.800781 0.15625 6.953125 0.34375 6.015625 0.34375 Z M 6.015625 -8.796875 C 6.898438 -8.796875 7.582031 -8.992188 8.0625 -9.390625 C 8.550781 -9.796875 8.796875 -10.40625 8.796875 -11.21875 C 8.796875 -12.039062 8.546875 -12.648438 8.046875 -13.046875 C 7.546875 -13.441406 6.863281 -13.640625 6 -13.640625 C 5.132812 -13.640625 4.445312 -13.4375 3.9375 -13.03125 C 3.4375 -12.632812 3.1875 -12.035156 3.1875 -11.234375 C 3.1875 -10.410156 3.445312 -9.796875 3.96875 -9.390625 C 4.488281 -8.992188 5.171875 -8.796875 6.015625 -8.796875 Z M 5.984375 -1.109375 C 7.054688 -1.109375 7.898438 -1.378906 8.515625 -1.921875 C 9.128906 -2.460938 9.4375 -3.226562 9.4375 -4.21875 C 9.4375 -5.226562 9.132812 -6 8.53125 -6.53125 C 7.925781 -7.070312 7.082031 -7.34375 6 -7.34375 C 4.925781 -7.34375 4.078125 -7.070312 3.453125 -6.53125 C 2.835938 -6 2.53125 -5.238281 2.53125 -4.25 C 2.53125 -3.238281 2.835938 -2.460938 3.453125 -1.921875 C 4.066406 -1.378906 4.910156 -1.109375 5.984375 -1.109375 Z M 5.984375 -1.109375 "/></g></g></g></svg>